<?xml version="1.0" standalone="no"?><!DOCTYPE svg PUBLIC "-//W3C//DTD SVG 1.1//EN"
        "http://www.w3.org/Graphics/SVG/1.1/DTD/svg11.dtd">
<svg t="1559393783436" class="icon" style="" viewBox="0 0 1024 1024" version="1.1" xmlns="http://www.w3.org/2000/svg"
     p-id="3846" xmlns:xlink="http://www.w3.org/1999/xlink" width="200" height="200">
    <defs>
        <style type="text/css"></style>
    </defs>
    <path d="M816.789705 189.588963 213.140355 189.588963c-45.461401 0-83.615373 38.288025-83.615373 83.752496l0 387.570059c0 45.461401 38.153972 81.216743 83.615373 81.216743l194.32687 0c0 0-36.556591 88.703251-36.556591 92.502787 0 7.579629 6.14393 13.618159 13.718443 13.618159l260.666788 0c7.578606 0 13.721513-6.03853 13.721513-13.618159 0-3.815909-36.84721-92.502787-36.84721-92.502787l194.619536 0c45.461401 0 81.028455-35.756365 81.028455-81.216743L897.818159 273.340435C897.818159 227.875964 862.251106 189.588963 816.789705 189.588963L816.789705 189.588963zM842.564741 587.829036c0 22.732747-18.426675 41.158399-41.158399 41.158399L225.058802 628.987435c-22.728654 0-41.154305-18.425651-41.154305-41.158399L183.904497 286.000779c0-22.732747 18.425651-41.158399 41.154305-41.158399L801.406342 244.842381c22.731724 0 41.158399 18.425651 41.158399 41.158399L842.564741 587.829036 842.564741 587.829036zM842.564741 587.829036"
    />
</svg>