<?xml version="1.0" standalone="no"?><!DOCTYPE svg PUBLIC "-//W3C//DTD SVG 1.1//EN"
        "http://www.w3.org/Graphics/SVG/1.1/DTD/svg11.dtd">
<svg t="1559392342771" class="icon" style="" viewBox="0 0 1024 1024" version="1.1" xmlns="http://www.w3.org/2000/svg"
     p-id="2216" xmlns:xlink="http://www.w3.org/1999/xlink" width="200" height="200">
    <defs>
        <style type="text/css"></style>
    </defs>
    <path d="M256 64l512 0 0 128-512 0 0-128z"/>
    <path d="M960 256l-896 0c-35.2 0-64 28.8-64 64l0 320c0 35.2 28.8 64 64 64l192 0 0 256 512 0 0-256 192 0c35.2 0 64-28.8 64-64l0-320c0-35.2-28.8-64-64-64zM128 448c-35.36 0-64-28.64-64-64s28.64-64 64-64 64 28.64 64 64-28.64 64-64 64zM704 896l-384 0 0-320 384 0 0 320z"/>
</svg>